<svg xmlns="http://www.w3.org/2000/svg" width="100" height="100" viewBox="0 0 100 100">
  <defs>
    <clipPath id="clip-path">
      <rect id="Rectangle_14" data-name="Rectangle 14" width="100" height="100" transform="translate(138 203)"
            fill="#fff" stroke="#707070" stroke-width="1"/>
    </clipPath>
  </defs>
  <g id="Mask_Group_6" data-name="Mask Group 6" transform="translate(-138 -203)" clip-path="url(#clip-path)">
    <g id="tap" transform="translate(138 203)">
      <g id="Group_4" data-name="Group 4">
        <g id="Group_3" data-name="Group 3">
          <path id="Path_3" data-name="Path 3"
                d="M80.632,57.414l-24.748-8.03V33.1a9.268,9.268,0,0,0-18.536,0v27.37l-6.626-3.138A9.374,9.374,0,0,0,18.365,70.068l6.848,13.384A30.39,30.39,0,0,0,82.657,69.61V60.2A2.93,2.93,0,0,0,80.632,57.414Z"
                fill="#5e39e0"/>
        </g>
      </g>
      <g id="Group_6" data-name="Group 6">
        <g id="Group_5" data-name="Group 5">
          <path id="Path_4" data-name="Path 4"
                d="M46.616,0A26.758,26.758,0,0,0,28.531,46.479a2.93,2.93,0,0,0,3.961-4.317,20.9,20.9,0,1,1,28.247,0A2.93,2.93,0,0,0,64.7,46.479,26.758,26.758,0,0,0,46.616,0Z"
                fill="#ed673b"/>
        </g>
      </g>
    </g>
  </g>
</svg>
